<mxfile host="app.diagrams.net" modified="2023-02-05T21:07:49.011Z" agent="5.0 (Windows)" etag="-sQw2htyirNM6b-9cu4k" version="20.8.16" type="github">
  <diagram name="Page-1" id="ftNd-YgC9ZWd_KhuzdhC">
    <mxGraphModel dx="838" dy="-379" grid="1" gridSize="10" guides="1" tooltips="1" connect="1" arrows="1" fold="1" page="1" pageScale="1" pageWidth="1169" pageHeight="827" math="0" shadow="0">
      <root>
        <mxCell id="0" />
        <mxCell id="1" parent="0" />
        <mxCell id="tYOuKYM6x3wthSHOWYr8-1" value="Client" style="html=1;overflow=block;blockSpacing=1;shape=umlActor;labelPosition=center;verticalLabelPosition=bottom;verticalAlign=top;whiteSpace=nowrap;fontSize=16.7;fontColor=#333333;align=center;spacing=0;strokeColor=#5e5e5e;strokeOpacity=100;rounded=1;absoluteArcSize=1;arcSize=9;strokeWidth=2.3;lucidId=Zoit8c.qYpQ7;" parent="1" vertex="1">
          <mxGeometry x="80" y="1320" width="60" height="135" as="geometry" />
        </mxCell>
        <mxCell id="tYOuKYM6x3wthSHOWYr8-2" value="Gerer le profil" style="html=1;overflow=block;blockSpacing=1;whiteSpace=wrap;ellipse;fontSize=13;spacing=3.8;strokeColor=#030303;strokeOpacity=100;rounded=1;absoluteArcSize=1;arcSize=9;strokeWidth=1;lucidId=3sitsereLQRn;" parent="1" vertex="1">
          <mxGeometry x="445" y="870" width="120" height="50" as="geometry" />
        </mxCell>
        <mxCell id="tYOuKYM6x3wthSHOWYr8-37" style="edgeStyle=orthogonalEdgeStyle;rounded=0;orthogonalLoop=1;jettySize=auto;html=1;exitX=0.5;exitY=0;exitDx=0;exitDy=0;entryX=0.5;entryY=1;entryDx=0;entryDy=0;endArrow=block;endFill=0;" parent="1" source="tYOuKYM6x3wthSHOWYr8-4" target="tYOuKYM6x3wthSHOWYr8-2" edge="1">
          <mxGeometry relative="1" as="geometry" />
        </mxCell>
        <mxCell id="tYOuKYM6x3wthSHOWYr8-4" value="Desactiver le profil" style="html=1;overflow=block;blockSpacing=1;whiteSpace=wrap;ellipse;fontSize=13;spacing=3.8;strokeColor=#000000;strokeOpacity=100;rounded=1;absoluteArcSize=1;arcSize=9;strokeWidth=1;lucidId=jtitNFk_JNwB;" parent="1" vertex="1">
          <mxGeometry x="405" y="950" width="120" height="30" as="geometry" />
        </mxCell>
        <mxCell id="tYOuKYM6x3wthSHOWYr8-5" value="Consulter liste ludification" style="html=1;overflow=block;blockSpacing=1;whiteSpace=wrap;ellipse;fontSize=13;spacing=3.8;strokeColor=#5e5e5e;strokeOpacity=100;rounded=1;absoluteArcSize=1;arcSize=9;strokeWidth=2.3;lucidId=AtitZLWRrcX2;" parent="1" vertex="1">
          <mxGeometry x="400" y="2180" width="120" height="90" as="geometry" />
        </mxCell>
        <mxCell id="tYOuKYM6x3wthSHOWYr8-7" value="Ajouter un ami &#39;abonner&#39;" style="html=1;overflow=block;blockSpacing=1;whiteSpace=wrap;ellipse;fontSize=13;spacing=3.8;strokeColor=#5e5e5e;strokeOpacity=100;rounded=1;absoluteArcSize=1;arcSize=9;strokeWidth=2.3;lucidId=yuiteOMJiaQA;" parent="1" vertex="1">
          <mxGeometry x="585" y="1622" width="130" height="40" as="geometry" />
        </mxCell>
        <mxCell id="tYOuKYM6x3wthSHOWYr8-9" value="Supprimer un ami" style="html=1;overflow=block;blockSpacing=1;whiteSpace=wrap;ellipse;fontSize=13;spacing=3.8;strokeColor=#5e5e5e;strokeOpacity=100;rounded=1;absoluteArcSize=1;arcSize=9;strokeWidth=2.3;lucidId=Juitxt.MBrJM;" parent="1" vertex="1">
          <mxGeometry x="320" y="1587" width="120" height="30" as="geometry" />
        </mxCell>
        <mxCell id="tYOuKYM6x3wthSHOWYr8-11" value="Chercher des utilisateur" style="html=1;overflow=block;blockSpacing=1;whiteSpace=wrap;ellipse;fontSize=13;spacing=3.8;strokeColor=#5e5e5e;strokeOpacity=100;rounded=1;absoluteArcSize=1;arcSize=9;strokeWidth=2.3;lucidId=SuitE4AoL12q;" parent="1" vertex="1">
          <mxGeometry x="410.25" y="1627" width="150" height="30" as="geometry" />
        </mxCell>
        <mxCell id="tYOuKYM6x3wthSHOWYr8-42" style="edgeStyle=orthogonalEdgeStyle;rounded=0;orthogonalLoop=1;jettySize=auto;html=1;entryX=0.5;entryY=1;entryDx=0;entryDy=0;endArrow=block;endFill=0;" parent="1" source="tYOuKYM6x3wthSHOWYr8-13" target="tYOuKYM6x3wthSHOWYr8-2" edge="1">
          <mxGeometry relative="1" as="geometry">
            <Array as="points">
              <mxPoint x="595" y="930" />
              <mxPoint x="505" y="930" />
            </Array>
          </mxGeometry>
        </mxCell>
        <mxCell id="tYOuKYM6x3wthSHOWYr8-13" value="Modifier le profil" style="ellipse;whiteSpace=wrap;html=1;" parent="1" vertex="1">
          <mxGeometry x="535" y="950" width="120" height="30" as="geometry" />
        </mxCell>
        <mxCell id="tYOuKYM6x3wthSHOWYr8-14" value="Reserver un evenement" style="ellipse;whiteSpace=wrap;html=1;" parent="1" vertex="1">
          <mxGeometry x="457.38" y="1126.5" width="120" height="40" as="geometry" />
        </mxCell>
        <mxCell id="tYOuKYM6x3wthSHOWYr8-16" value="Remboursement ticket" style="ellipse;whiteSpace=wrap;html=1;" parent="1" vertex="1">
          <mxGeometry x="320.63" y="1149" width="130" height="30" as="geometry" />
        </mxCell>
        <mxCell id="tYOuKYM6x3wthSHOWYr8-18" value="Télécharger code QR" style="ellipse;whiteSpace=wrap;html=1;" parent="1" vertex="1">
          <mxGeometry x="584.13" y="1151.5" width="129.5" height="25" as="geometry" />
        </mxCell>
        <mxCell id="tYOuKYM6x3wthSHOWYr8-19" value="Gerer la liste des utilisateur" style="ellipse;whiteSpace=wrap;html=1;" parent="1" vertex="1">
          <mxGeometry x="455.25" y="1550" width="193.5" height="30" as="geometry" />
        </mxCell>
        <mxCell id="tYOuKYM6x3wthSHOWYr8-20" value="S&#39;authentifier" style="html=1;overflow=block;blockSpacing=1;whiteSpace=wrap;ellipse;fontSize=13;spacing=3.8;strokeColor=#5e5e5e;strokeOpacity=100;rounded=1;absoluteArcSize=1;arcSize=9;strokeWidth=2.3;lucidId=XvitAHHM73nt;" parent="1" vertex="1">
          <mxGeometry x="900" y="1530" width="120" height="90" as="geometry" />
        </mxCell>
        <mxCell id="tYOuKYM6x3wthSHOWYr8-21" value="&amp;lt;&amp;lt;extend&amp;gt;&amp;gt;" style="edgeStyle=none;rounded=0;orthogonalLoop=1;jettySize=auto;html=1;exitX=0.5;exitY=1;exitDx=0;exitDy=0;entryX=1;entryY=0;entryDx=0;entryDy=0;fontSize=14;endArrow=classic;endFill=1;dashed=1;" parent="1" source="tYOuKYM6x3wthSHOWYr8-22" target="tYOuKYM6x3wthSHOWYr8-20" edge="1">
          <mxGeometry relative="1" as="geometry" />
        </mxCell>
        <mxCell id="tYOuKYM6x3wthSHOWYr8-22" value="Deconnecter" style="html=1;overflow=block;blockSpacing=1;whiteSpace=wrap;ellipse;fontSize=13;spacing=3.8;strokeColor=#5e5e5e;strokeOpacity=100;rounded=1;absoluteArcSize=1;arcSize=9;strokeWidth=2.3;lucidId=XvitmW9DInrr;" parent="1" vertex="1">
          <mxGeometry x="1040" y="1420" width="120" height="90" as="geometry" />
        </mxCell>
        <mxCell id="tYOuKYM6x3wthSHOWYr8-24" value="Supprimer le profil" style="html=1;overflow=block;blockSpacing=1;whiteSpace=wrap;ellipse;fontSize=13;spacing=3.8;strokeColor=#121212;strokeOpacity=100;rounded=1;absoluteArcSize=1;arcSize=9;strokeWidth=1;lucidId=jtitNFk_JNwB;" parent="1" vertex="1">
          <mxGeometry x="295" y="920" width="120" height="30" as="geometry" />
        </mxCell>
        <mxCell id="tYOuKYM6x3wthSHOWYr8-25" value="Consulter la liste des évenements" style="ellipse;whiteSpace=wrap;html=1;" parent="1" vertex="1">
          <mxGeometry x="450.63" y="1000" width="133.5" height="50" as="geometry" />
        </mxCell>
        <mxCell id="tYOuKYM6x3wthSHOWYr8-27" value="discuter avec l&#39;oganizateur pour feedback / réclamation" style="ellipse;whiteSpace=wrap;html=1;" parent="1" vertex="1">
          <mxGeometry x="612.25" y="1076.5" width="159.5" height="40" as="geometry" />
        </mxCell>
        <mxCell id="tYOuKYM6x3wthSHOWYr8-28" value="Transfer Ticket pour un ami" style="ellipse;whiteSpace=wrap;html=1;" parent="1" vertex="1">
          <mxGeometry x="439.88" y="1182.75" width="160" height="31.25" as="geometry" />
        </mxCell>
        <mxCell id="tYOuKYM6x3wthSHOWYr8-30" value="Partager un évenement" style="ellipse;whiteSpace=wrap;html=1;" parent="1" vertex="1">
          <mxGeometry x="285.38" y="1076.5" width="140" height="25" as="geometry" />
        </mxCell>
        <mxCell id="tYOuKYM6x3wthSHOWYr8-32" value="Consulter un détail d&#39;un evenement" style="ellipse;whiteSpace=wrap;html=1;" parent="1" vertex="1">
          <mxGeometry x="445.63" y="1069" width="147.75" height="40" as="geometry" />
        </mxCell>
        <mxCell id="tYOuKYM6x3wthSHOWYr8-43" style="rounded=0;orthogonalLoop=1;jettySize=auto;html=1;endArrow=none;endFill=0;exitX=0;exitY=0.5;exitDx=0;exitDy=0;" parent="1" source="tYOuKYM6x3wthSHOWYr8-35" edge="1">
          <mxGeometry relative="1" as="geometry">
            <mxPoint x="635" y="940" as="sourcePoint" />
            <mxPoint x="505" y="930" as="targetPoint" />
            <Array as="points">
              <mxPoint x="625" y="930" />
              <mxPoint x="575" y="930" />
            </Array>
          </mxGeometry>
        </mxCell>
        <mxCell id="tYOuKYM6x3wthSHOWYr8-35" value="Consulter mes achats" style="ellipse;whiteSpace=wrap;html=1;" parent="1" vertex="1">
          <mxGeometry x="635" y="920" width="130" height="30" as="geometry" />
        </mxCell>
        <mxCell id="tYOuKYM6x3wthSHOWYr8-39" value="" style="endArrow=none;html=1;rounded=0;exitX=0.99;exitY=0.392;exitDx=0;exitDy=0;exitPerimeter=0;" parent="1" source="tYOuKYM6x3wthSHOWYr8-24" edge="1">
          <mxGeometry width="50" height="50" relative="1" as="geometry">
            <mxPoint x="422.1200000000001" y="930.2300000000002" as="sourcePoint" />
            <mxPoint x="465" y="930" as="targetPoint" />
            <Array as="points">
              <mxPoint x="425" y="930" />
            </Array>
          </mxGeometry>
        </mxCell>
        <mxCell id="tYOuKYM6x3wthSHOWYr8-49" value="&amp;lt;&amp;lt;include&amp;gt;&amp;gt;" style="html=1;verticalAlign=bottom;labelBackgroundColor=none;endArrow=open;endFill=0;dashed=1;rounded=0;exitX=1;exitY=0.5;exitDx=0;exitDy=0;entryX=0.733;entryY=0.044;entryDx=0;entryDy=0;entryPerimeter=0;" parent="1" source="tYOuKYM6x3wthSHOWYr8-2" target="tYOuKYM6x3wthSHOWYr8-20" edge="1">
          <mxGeometry width="160" relative="1" as="geometry">
            <mxPoint x="890" y="1150" as="sourcePoint" />
            <mxPoint x="940" y="1250" as="targetPoint" />
            <Array as="points">
              <mxPoint x="980" y="1120" />
            </Array>
          </mxGeometry>
        </mxCell>
        <mxCell id="tYOuKYM6x3wthSHOWYr8-50" value="Actor" style="shape=umlActor;verticalLabelPosition=bottom;verticalAlign=top;html=1;outlineConnect=0;" parent="1" vertex="1">
          <mxGeometry x="100" y="1760" width="30" height="60" as="geometry" />
        </mxCell>
        <mxCell id="tYOuKYM6x3wthSHOWYr8-86" style="rounded=0;orthogonalLoop=1;jettySize=auto;html=1;exitX=1;exitY=0.3333333333333333;exitDx=0;exitDy=0;exitPerimeter=0;entryX=0;entryY=0.5;entryDx=0;entryDy=0;endArrow=none;endFill=0;" parent="1" source="tYOuKYM6x3wthSHOWYr8-88" target="tYOuKYM6x3wthSHOWYr8-89" edge="1">
          <mxGeometry relative="1" as="geometry" />
        </mxCell>
        <mxCell id="tYOuKYM6x3wthSHOWYr8-87" style="edgeStyle=none;rounded=0;orthogonalLoop=1;jettySize=auto;html=1;exitX=1;exitY=0.3333333333333333;exitDx=0;exitDy=0;exitPerimeter=0;entryX=0;entryY=0.5;entryDx=0;entryDy=0;endArrow=none;endFill=0;" parent="1" source="tYOuKYM6x3wthSHOWYr8-88" target="tYOuKYM6x3wthSHOWYr8-91" edge="1">
          <mxGeometry relative="1" as="geometry" />
        </mxCell>
        <mxCell id="tYOuKYM6x3wthSHOWYr8-88" value="Utilisateur" style="html=1;overflow=block;blockSpacing=1;shape=umlActor;labelPosition=center;verticalLabelPosition=bottom;verticalAlign=top;whiteSpace=nowrap;fontSize=16.7;fontColor=#333333;align=center;spacing=0;strokeColor=#5e5e5e;strokeOpacity=100;rounded=1;absoluteArcSize=1;arcSize=9;strokeWidth=2.3;lucidId=8mitzC-ZQj-q;" parent="1" vertex="1">
          <mxGeometry x="120" y="2700" width="60" height="135" as="geometry" />
        </mxCell>
        <mxCell id="tYOuKYM6x3wthSHOWYr8-89" value="Consulter les evenements" style="html=1;overflow=block;blockSpacing=1;whiteSpace=wrap;ellipse;fontSize=13;spacing=3.8;strokeColor=#5e5e5e;strokeOpacity=100;rounded=1;absoluteArcSize=1;arcSize=9;strokeWidth=2.3;lucidId=soitjvf58P_N;" parent="1" vertex="1">
          <mxGeometry x="425" y="2590" width="165" height="90" as="geometry" />
        </mxCell>
        <mxCell id="tYOuKYM6x3wthSHOWYr8-90" value="" style="html=1;jettySize=18;whiteSpace=wrap;fontSize=13;strokeColor=#5E5E5E;strokeWidth=1.5;rounded=1;arcSize=12;edgeStyle=orthogonalEdgeStyle;startArrow=none;endArrow=block;endFill=1;lucidId=mpitS5lhm7C1;" parent="1" edge="1">
          <mxGeometry width="100" height="100" relative="1" as="geometry">
            <Array as="points" />
            <mxPoint x="676" y="2759" as="sourcePoint" />
            <mxPoint x="676" y="2759" as="targetPoint" />
          </mxGeometry>
        </mxCell>
        <mxCell id="tYOuKYM6x3wthSHOWYr8-91" value="Creer un compte" style="html=1;overflow=block;blockSpacing=1;whiteSpace=wrap;ellipse;fontSize=13;spacing=3.8;strokeColor=#5e5e5e;strokeOpacity=100;rounded=1;absoluteArcSize=1;arcSize=9;strokeWidth=2.3;lucidId=KpitLF8Kvkj4;" parent="1" vertex="1">
          <mxGeometry x="417" y="2700" width="165" height="90" as="geometry" />
        </mxCell>
        <mxCell id="tYOuKYM6x3wthSHOWYr8-92" style="edgeStyle=none;rounded=0;orthogonalLoop=1;jettySize=auto;html=1;exitX=0;exitY=0.5;exitDx=0;exitDy=0;entryX=0.972;entryY=0.296;entryDx=0;entryDy=0;fontSize=14;endArrow=block;endFill=0;entryPerimeter=0;" parent="1" source="tYOuKYM6x3wthSHOWYr8-93" target="tYOuKYM6x3wthSHOWYr8-89" edge="1">
          <mxGeometry relative="1" as="geometry">
            <Array as="points" />
          </mxGeometry>
        </mxCell>
        <mxCell id="tYOuKYM6x3wthSHOWYr8-93" value="&lt;div&gt;Rechercher un evenement &lt;br&gt;&lt;/div&gt;" style="html=1;overflow=block;blockSpacing=1;whiteSpace=wrap;ellipse;fontSize=13;spacing=3.8;strokeColor=#5e5e5e;strokeOpacity=100;rounded=1;absoluteArcSize=1;arcSize=9;strokeWidth=2.3;lucidId=.BitsejxpJ_f;" parent="1" vertex="1">
          <mxGeometry x="885" y="2510" width="260" height="40" as="geometry" />
        </mxCell>
        <mxCell id="tYOuKYM6x3wthSHOWYr8-94" style="edgeStyle=none;rounded=0;orthogonalLoop=1;jettySize=auto;html=1;exitX=0;exitY=0.5;exitDx=0;exitDy=0;fontSize=14;endArrow=block;endFill=0;" parent="1" source="tYOuKYM6x3wthSHOWYr8-95" edge="1">
          <mxGeometry relative="1" as="geometry">
            <mxPoint x="590" y="2630" as="targetPoint" />
          </mxGeometry>
        </mxCell>
        <mxCell id="tYOuKYM6x3wthSHOWYr8-95" value="Filterr les evenements selon Prix d&#39;evenement /date d&#39;evenement" style="html=1;overflow=block;blockSpacing=1;whiteSpace=wrap;ellipse;fontSize=13;spacing=3.8;strokeColor=#5e5e5e;strokeOpacity=100;rounded=1;absoluteArcSize=1;arcSize=9;strokeWidth=2.3;lucidId=.BitsejxpJ_f;" parent="1" vertex="1">
          <mxGeometry x="925" y="2830" width="250" height="90" as="geometry" />
        </mxCell>
        <mxCell id="tYOuKYM6x3wthSHOWYr8-96" value="" style="edgeStyle=none;rounded=0;orthogonalLoop=1;jettySize=auto;html=1;fontSize=14;endArrow=block;endFill=0;" parent="1" source="tYOuKYM6x3wthSHOWYr8-97" edge="1">
          <mxGeometry relative="1" as="geometry">
            <mxPoint x="590" y="2630" as="targetPoint" />
          </mxGeometry>
        </mxCell>
        <mxCell id="tYOuKYM6x3wthSHOWYr8-97" value="&lt;font style=&quot;font-size: 14px;&quot;&gt;Consulter profil de l&#39;organisateur&lt;/font&gt;" style="ellipse;whiteSpace=wrap;html=1;" parent="1" vertex="1">
          <mxGeometry x="895" y="2610" width="230" height="40" as="geometry" />
        </mxCell>
        <mxCell id="tYOuKYM6x3wthSHOWYr8-98" style="edgeStyle=none;rounded=0;orthogonalLoop=1;jettySize=auto;html=1;exitX=0;exitY=0.5;exitDx=0;exitDy=0;fontSize=14;endArrow=block;endFill=0;" parent="1" edge="1">
          <mxGeometry relative="1" as="geometry">
            <mxPoint x="590" y="2640" as="targetPoint" />
            <mxPoint x="924.5000000000018" y="2970" as="sourcePoint" />
          </mxGeometry>
        </mxCell>
        <mxCell id="tYOuKYM6x3wthSHOWYr8-99" value="Partager un evenement" style="ellipse;whiteSpace=wrap;html=1;" parent="1" vertex="1">
          <mxGeometry x="920" y="2930" width="201" height="80" as="geometry" />
        </mxCell>
        <mxCell id="tYOuKYM6x3wthSHOWYr8-100" style="edgeStyle=none;rounded=0;orthogonalLoop=1;jettySize=auto;html=1;exitX=0;exitY=0.5;exitDx=0;exitDy=0;entryX=1;entryY=0.5;entryDx=0;entryDy=0;fontSize=14;endArrow=block;endFill=0;" parent="1" source="tYOuKYM6x3wthSHOWYr8-101" target="tYOuKYM6x3wthSHOWYr8-89" edge="1">
          <mxGeometry relative="1" as="geometry" />
        </mxCell>
        <mxCell id="tYOuKYM6x3wthSHOWYr8-101" value="Ajouter au favoris" style="html=1;overflow=block;blockSpacing=1;whiteSpace=wrap;ellipse;fontSize=13;spacing=3.8;strokeColor=#5e5e5e;strokeOpacity=100;rounded=1;absoluteArcSize=1;arcSize=9;strokeWidth=2.3;lucidId=.BitsejxpJ_f;" parent="1" vertex="1">
          <mxGeometry x="895" y="2730" width="220" height="60" as="geometry" />
        </mxCell>
        <mxCell id="tYOuKYM6x3wthSHOWYr8-102" value="&lt;div&gt;&lt;font style=&quot;font-size: 14px;&quot;&gt;Selon &lt;font style=&quot;font-size: 14px;&quot;&gt;organizateur&lt;/font&gt;&lt;/font&gt;&lt;/div&gt;" style="ellipse;whiteSpace=wrap;html=1;fontSize=24;" parent="1" vertex="1">
          <mxGeometry x="1330" y="2470" width="150" height="60" as="geometry" />
        </mxCell>
        <mxCell id="tYOuKYM6x3wthSHOWYr8-103" value="&lt;font style=&quot;font-size: 14px;&quot;&gt;Selon artists&lt;/font&gt;" style="ellipse;whiteSpace=wrap;html=1;fontSize=24;" parent="1" vertex="1">
          <mxGeometry x="1260" y="2310" width="120" height="80" as="geometry" />
        </mxCell>
        <mxCell id="tYOuKYM6x3wthSHOWYr8-104" value="&lt;font style=&quot;font-size: 14px;&quot;&gt;Selon nom d&#39;evenement&lt;/font&gt;" style="ellipse;whiteSpace=wrap;html=1;fontSize=24;" parent="1" vertex="1">
          <mxGeometry x="1050" y="2320" width="160" height="100" as="geometry" />
        </mxCell>
        <mxCell id="tYOuKYM6x3wthSHOWYr8-105" value="&lt;div&gt;&lt;font style=&quot;font-size: 14px;&quot;&gt;Selon &lt;font style=&quot;font-size: 14px;&quot;&gt;Date&lt;/font&gt;&lt;/font&gt;&lt;/div&gt;" style="ellipse;whiteSpace=wrap;html=1;fontSize=24;" parent="1" vertex="1">
          <mxGeometry x="1320" y="2650" width="140" height="60" as="geometry" />
        </mxCell>
        <mxCell id="tYOuKYM6x3wthSHOWYr8-106" value="&lt;div&gt;&lt;font style=&quot;font-size: 14px;&quot;&gt;Selon &lt;font style=&quot;font-size: 14px;&quot;&gt;Emplacement&lt;/font&gt;&lt;/font&gt;&lt;/div&gt;" style="ellipse;whiteSpace=wrap;html=1;fontSize=24;" parent="1" vertex="1">
          <mxGeometry x="1340" y="2380" width="150" height="70" as="geometry" />
        </mxCell>
        <mxCell id="tYOuKYM6x3wthSHOWYr8-107" value="&lt;div&gt;&lt;font style=&quot;font-size: 14px;&quot;&gt;Selon &lt;font style=&quot;font-size: 14px;&quot;&gt;Categories&lt;/font&gt;&lt;/font&gt;&lt;/div&gt;" style="ellipse;whiteSpace=wrap;html=1;fontSize=24;" parent="1" vertex="1">
          <mxGeometry x="1330" y="2560" width="130" height="70" as="geometry" />
        </mxCell>
        <mxCell id="tYOuKYM6x3wthSHOWYr8-108" value="Gérer Listes de Favoris " style="html=1;overflow=block;blockSpacing=1;whiteSpace=wrap;ellipse;fontSize=13;spacing=3.8;strokeColor=#5e5e5e;strokeOpacity=100;rounded=1;absoluteArcSize=1;arcSize=9;strokeWidth=2.3;lucidId=atit3Y5sFF7p;" parent="1" vertex="1">
          <mxGeometry x="426.5" y="2815" width="120" height="90" as="geometry" />
        </mxCell>
        <mxCell id="tYOuKYM6x3wthSHOWYr8-109" style="edgeStyle=none;rounded=0;orthogonalLoop=1;jettySize=auto;html=1;exitX=0;exitY=0.5;exitDx=0;exitDy=0;fontSize=14;endArrow=block;endFill=0;entryX=0.958;entryY=0.671;entryDx=0;entryDy=0;entryPerimeter=0;" parent="1" source="tYOuKYM6x3wthSHOWYr8-110" target="tYOuKYM6x3wthSHOWYr8-108" edge="1">
          <mxGeometry relative="1" as="geometry">
            <mxPoint x="550" y="2850" as="targetPoint" />
          </mxGeometry>
        </mxCell>
        <mxCell id="tYOuKYM6x3wthSHOWYr8-110" value="Supprimer de la liste de favoris" style="html=1;overflow=block;blockSpacing=1;whiteSpace=wrap;ellipse;fontSize=13;spacing=3.8;strokeColor=#5e5e5e;strokeOpacity=100;rounded=1;absoluteArcSize=1;arcSize=9;strokeWidth=2.3;lucidId=atit3Y5sFF7p;" parent="1" vertex="1">
          <mxGeometry x="583" y="2880" width="165" height="70" as="geometry" />
        </mxCell>
        <mxCell id="tYOuKYM6x3wthSHOWYr8-111" style="edgeStyle=none;rounded=0;orthogonalLoop=1;jettySize=auto;html=1;exitX=0.5;exitY=0;exitDx=0;exitDy=0;fontSize=14;endArrow=block;endFill=0;" parent="1" source="tYOuKYM6x3wthSHOWYr8-112" target="tYOuKYM6x3wthSHOWYr8-108" edge="1">
          <mxGeometry relative="1" as="geometry" />
        </mxCell>
        <mxCell id="tYOuKYM6x3wthSHOWYr8-112" value="Consulter les informations de l&#39;evenemts" style="html=1;overflow=block;blockSpacing=1;whiteSpace=wrap;ellipse;fontSize=13;spacing=3.8;strokeColor=#5e5e5e;strokeOpacity=100;rounded=1;absoluteArcSize=1;arcSize=9;strokeWidth=2.3;lucidId=atit3Y5sFF7p;" parent="1" vertex="1">
          <mxGeometry x="426.5" y="2960" width="165" height="70" as="geometry" />
        </mxCell>
        <mxCell id="tYOuKYM6x3wthSHOWYr8-113" style="edgeStyle=none;rounded=0;orthogonalLoop=1;jettySize=auto;html=1;exitX=1;exitY=0.3333333333333333;exitDx=0;exitDy=0;exitPerimeter=0;entryX=0;entryY=0.5;entryDx=0;entryDy=0;endArrow=none;endFill=0;" parent="1" source="tYOuKYM6x3wthSHOWYr8-88" target="tYOuKYM6x3wthSHOWYr8-108" edge="1">
          <mxGeometry relative="1" as="geometry">
            <mxPoint x="190" y="2755" as="sourcePoint" />
            <mxPoint x="427.00000000000296" y="2755" as="targetPoint" />
          </mxGeometry>
        </mxCell>
        <mxCell id="tYOuKYM6x3wthSHOWYr8-114" value="Accepter un utlisateur" style="ellipse;whiteSpace=wrap;html=1;" parent="1" vertex="1">
          <mxGeometry x="698.5" y="1587" width="120" height="30" as="geometry" />
        </mxCell>
        <mxCell id="zlxw7EzZlGF5oyyQFBYH-4" value="Consulter profil" style="ellipse;whiteSpace=wrap;html=1;" vertex="1" parent="1">
          <mxGeometry x="425.25" y="1690" width="110" height="30" as="geometry" />
        </mxCell>
        <mxCell id="zlxw7EzZlGF5oyyQFBYH-5" value="Gerer panier" style="ellipse;whiteSpace=wrap;html=1;" vertex="1" parent="1">
          <mxGeometry x="463" y="1280" width="137" height="30" as="geometry" />
        </mxCell>
        <mxCell id="zlxw7EzZlGF5oyyQFBYH-6" value="Gérer Listes de Favoris " style="html=1;overflow=block;blockSpacing=1;whiteSpace=wrap;ellipse;fontSize=13;spacing=3.8;strokeColor=#5e5e5e;strokeOpacity=100;rounded=1;absoluteArcSize=1;arcSize=9;strokeWidth=2.3;lucidId=atit3Y5sFF7p;" vertex="1" parent="1">
          <mxGeometry x="630.5" y="1320" width="141.25" height="40" as="geometry" />
        </mxCell>
        <mxCell id="zlxw7EzZlGF5oyyQFBYH-8" value="Supprimer de la liste de favoris" style="html=1;overflow=block;blockSpacing=1;whiteSpace=wrap;ellipse;fontSize=13;spacing=3.8;strokeColor=#5e5e5e;strokeOpacity=100;rounded=1;absoluteArcSize=1;arcSize=9;strokeWidth=2.3;lucidId=atit3Y5sFF7p;" vertex="1" parent="1">
          <mxGeometry x="725.5" y="1380" width="202.25" height="30" as="geometry" />
        </mxCell>
        <mxCell id="zlxw7EzZlGF5oyyQFBYH-10" value="Consulter un détail d&#39;un evenement" style="html=1;overflow=block;blockSpacing=1;whiteSpace=wrap;ellipse;fontSize=13;spacing=3.8;strokeColor=#5e5e5e;strokeOpacity=100;rounded=1;absoluteArcSize=1;arcSize=9;strokeWidth=2.3;lucidId=atit3Y5sFF7p;" vertex="1" parent="1">
          <mxGeometry x="500" y="1380" width="215.5" height="30" as="geometry" />
        </mxCell>
        <mxCell id="zlxw7EzZlGF5oyyQFBYH-11" value="Consulter liste des evenement reserver" style="ellipse;whiteSpace=wrap;html=1;" vertex="1" parent="1">
          <mxGeometry x="268.5" y="1320" width="231.5" height="40" as="geometry" />
        </mxCell>
        <mxCell id="zlxw7EzZlGF5oyyQFBYH-12" value="ajouter aux favoris" style="ellipse;whiteSpace=wrap;html=1;" vertex="1" parent="1">
          <mxGeometry x="310" y="1109" width="120" height="30" as="geometry" />
        </mxCell>
      </root>
    </mxGraphModel>
  </diagram>
</mxfile>
